<svg xmlns="http://www.w3.org/2000/svg" width="256" height="256"><path fill="#1976D2" fill-opacity=".016" fill-rule="evenodd" d="M0 128.004v128.004l128.25-.254 128.25-.254.254-127.75L257.008 0H0v128.004m.485.496c0 70.4.119 99.053.265 63.672.146-35.38.146-92.98 0-128C.604 29.153.485 58.1.485 128.5"/><path fill="#1976D2" fill-opacity=".195" fill-rule="evenodd" d="M190.859 7.441c-5.006 5.512-6.793 8.266-7.258 11.186-.529 3.323-2.931 27.989-6.658 68.373-.533 5.775-1.418 13.875-1.966 18s-1.132 10.2-1.298 13.5c-.165 3.3-.386-16.388-.49-43.75-.104-27.362-.527-49.721-.939-49.685-.412.036-4.8 1.498-9.75 3.25l-9 3.185-.261 42.682-.26 42.683 9.335 14.317c10.315 15.822 15.079 23.771 12.009 20.039-1.871-2.274-1.946-2.28-32.996-2.5l-31.12-.221 1.602 3c.881 1.65 1.51 3.338 1.397 3.75-.113.412.244.75.794.75s.887.383.75.851c-.434 1.476 37.195 60.137 38.58 60.145.457.002 10.694-7.007 22.75-15.575l21.92-15.58v-92.92c0-51.107-.113-92.892-.25-92.857-.137.035-3.239 3.354-6.891 7.377M79.25 54.093 57 70.132v92.434c0 50.839.337 92.38.75 92.313.413-.066 3.569-3.144 7.015-6.839l6.266-6.718.999-8.411c1.233-10.375 7.994-78.271 8.953-89.911.395-4.801.769 12.281.859 39.25.127 38.341.413 47.75 1.453 47.75.713 0 5.1-1.278 9.75-2.841l8.455-2.84.261-42.756.261-42.755-7.34-11.654c-8.9-14.13-8.914-14.154-8.339-14.154.253 0 1.324 1.363 2.378 3.029l1.918 3.029 31.181.221c17.149.122 31.18.1 31.18-.049 0-.148-1.131-2.061-2.513-4.25-1.381-2.189-2.169-3.994-1.75-4.01.42-.017-.034-.495-1.008-1.062-.974-.567-1.51-1.453-1.191-1.969.319-.517.028-.939-.646-.939s-.954-.271-.623-.603c.671-.67-2.409-5.679-26.269-42.721-9.075-14.089-16.725-25.618-17-25.62-.275-.001-10.512 7.215-22.75 16.037"/><path fill="#1976D2" fill-opacity=".144" fill-rule="evenodd" d="m162 28.932-7.5 2.814-.285 10.127c-.157 5.57.085 10.127.537 10.127s.895 1.013.984 2.25c.089 1.237.621 4.05 1.182 6.25C159.797 71.774 171 124.318 171 126.543c0 1.462.432 2.308 1 1.957.645-.399 1-18.677 1-51.559 0-47.871-.105-50.937-1.75-50.883-.963.033-5.125 1.325-9.25 2.874M80.5 53.554c-11 7.958-20.788 15.134-21.75 15.947-1.612 1.363-1.739 4.334-1.61 37.739.13 33.688 1.251 83.379 1.674 74.233.102-2.216.8-4.916 1.551-6 .751-1.085 1.716-3.098 2.144-4.473.75-2.407 2.849-7.142 10.106-22.803 1.862-4.017 3.385-7.491 3.385-7.72 0-.36 1.225-3.196 5.604-12.977.546-1.218.997 18.474 1.155 50.354.204 41.161.524 52.259 1.5 51.913.683-.242 5.008-1.735 9.611-3.318l8.37-2.879-.663-8.535c-.365-4.694-3.108-19.335-6.097-32.535-8.244-36.413-12.536-57.968-11.603-58.286.462-.157 1.691-.914 2.731-1.682 1.672-1.234 2.124-1.137 3.892.833 2.425 2.703 3.238 4.101-10.683-18.365C66.514 83.531 65.994 82.614 69.14 86.158l2.36 2.658 30.251-.174c19.166-.11 30.201-.534 30.115-1.158-.185-1.331-2.193-5.863-2.873-6.484-.302-.275-.986-1.464-1.521-2.643-2.15-4.74-24.998-39.354-25.95-39.314-.562.024-10.022 6.554-21.022 14.511M195.546 77.75c-.369 1.513-2.142 5.9-3.94 9.75-1.798 3.85-6.832 15.274-11.187 25.387-6.974 16.192-8.277 18.539-10.919 19.665-2.295.977-3.349 1.004-4.483.113-1.207-.948-1.187-.7.109 1.335.875 1.375 3.386 5.425 5.579 9 2.194 3.575 7.14 11.45 10.99 17.5 3.851 6.05 7.55 12.125 8.221 13.5l1.218 2.5-1.867-2.311c-1.866-2.309-1.89-2.311-28.317-2.316-37.974-.008-34.85-.197-34.677 2.101.082 1.086.757 2.207 1.501 2.493.744.285 1.073.972.73 1.526-.342.554-.145 1.007.437 1.007s1.059.513 1.059 1.14c0 1.254 21.679 35.544 22.981 36.348.444.275 10.748-6.585 22.895-15.244l22.087-15.744.019-55.25c.017-50.793-.442-60.673-2.436-52.5"/><path fill="#1976D2" fill-opacity=".156" fill-rule="evenodd" d="M164.5 28.481c-3.3 1.308-5.473 2.41-4.83 2.449.703.042 1.428 2.767 1.815 6.82.354 3.712 1.284 11.925 2.066 18.25 1.385 11.201 4.098 33.718 6.867 57 1.302 10.949 1.373 9.141 1.475-37.75.059-27.088-.231-49.227-.643-49.198-.412.028-3.45 1.121-6.75 2.429M92.904 45.06c-4.622 3.333-8.554 6.483-8.737 7-.184.517-.746.94-1.25.94-.505 0-1.709.788-2.677 1.75s-3.204 2.875-4.97 4.25l-3.209 2.5 4.719-.186c2.596-.103 12.218-.215 21.383-.25L114.826 61l-1.132-3c-.623-1.65-1.484-3-1.913-3-.43 0-.781-.567-.781-1.261 0-1.16-8.629-14.739-9.367-14.739-.178 0-4.106 2.727-8.729 6.06m-9.782 134.797c-.115 47.591-.026 50.318 1.628 49.644.963-.392 3.579-1.354 5.815-2.138 4.441-1.557 4.536-1.976 2.916-12.863-.327-2.2-.985-7.6-1.461-12-.949-8.774-5.38-45.892-7.461-62.5-1.218-9.719-1.325-6.754-1.437 39.857m56.641 12.713c-.94.94 1.036 4.908 7.558 15.179l5.873 9.249 3.153-2.21c13.87-9.721 21.351-15.264 22.474-16.654.726-.899 1.626-1.563 2-1.477.373.086 1.435-.857 2.359-2.096l1.68-2.252-22.234-.184c-12.229-.101-22.517.099-22.863.445"/></svg>