<svg xmlns="http://www.w3.org/2000/svg" width="256" height="256"><path fill="#1976D2" fill-opacity=".016" fill-rule="evenodd" d="M0 128.004v128.004l128.25-.254 128.25-.254.254-127.75L257.008 0H0v128.004m.485.496c0 70.4.119 99.053.265 63.672.146-35.38.146-92.98 0-128C.604 29.153.485 58.1.485 128.5"/><path fill="#1976D2" fill-opacity=".143" fill-rule="evenodd" d="M191.694 4.287a251.28 251.28 0 0 1-5.826 8.302l-3.021 4.089-.493 17.763c-.506 18.194-2.055 28.196-2.41 15.559-.644-22.954-1.32-29.004-3.239-28.992-.663.004-4.13.477-7.705 1.051-5.766.927-13.019 4.412-15.102 7.258-.331.452-.398 18.003-.149 39.002.388 32.795.242 38.458-1.04 40.144-1.436 1.887-1.572 1.81-3.562-2a287.407 287.407 0 0 1-3.592-7.145c-.839-1.75-1.988-3.468-2.555-3.818-.567-.35-1.676-2.181-2.464-4.068-.789-1.888-1.871-3.432-2.406-3.432-.534 0-1.257-1.303-1.607-2.896-.35-1.593-1.511-3.688-2.58-4.655-1.069-.968-1.943-2.309-1.943-2.982 0-.672-.701-1.804-1.558-2.515-.857-.711-2.2-2.679-2.986-4.372-.785-1.694-2.979-5.105-4.875-7.58-1.897-2.475-3.478-4.982-3.515-5.57-.107-1.728-10.576-17.681-13.571-20.68-3.565-3.57-4.911-3.47-10.06.75-2.35 1.925-4.68 3.5-5.179 3.5-.499 0-1.964 1.125-3.256 2.5-1.292 1.375-2.867 2.5-3.5 2.5s-2.208 1.125-3.5 2.5c-1.292 1.375-2.708 2.5-3.146 2.5-.439 0-4.631 2.925-9.317 6.5-4.685 3.575-9.198 6.5-10.028 6.5C56.174 64 56 75.075 56 160v96h2.5c1.517 0 2.5-.57 2.5-1.45 0-.798.622-1.81 1.383-2.25.76-.44 3.701-3.585 6.535-6.988l5.152-6.189.392-12.656c.545-17.632 1.684-32.654 2.419-31.922.341.339.844 8.869 1.119 18.955.275 10.086.8 18.638 1.167 19.003.367.366 2.395.897 4.506 1.18 3.044.408 4.231.08 5.738-1.584 1.044-1.155 2.887-2.099 4.095-2.099 4.021 0 8.205-2.07 9.375-4.639.822-1.804 1.137-14.963 1.086-45.482l-.071-42.943-2.448-3.607c-1.346-1.985-2.448-4.39-2.448-5.346 0-.956-.675-2.298-1.5-2.983-1.76-1.461-1.978-4.586-.388-5.569.611-.378 1.479-.093 1.927.633.634 1.025 6.011 1.348 24.138 1.449 12.828.071 24.079-.24 25.003-.69.924-.45 1.875-1.832 2.114-3.071l.434-2.252.136 2.281c.075 1.255.923 2.548 1.886 2.872.963.325 4.316 3.312 7.452 6.637 5.898 6.254 10.543 15.326 9.389 18.335-.586 1.525-.766 1.526-2.441.011-1.566-1.417-4.961-1.636-25.42-1.636-15.392 0-23.838.365-24.26 1.049-.358.579-1.167.684-1.809.234-1.938-1.359-5.199-.839-4.787.764.205.799.715 2.891 1.132 4.65.418 1.758 2.166 5.358 3.884 8 1.719 2.641 3.807 6.275 4.64 8.075.834 1.8 3.305 5.85 5.491 9 2.187 3.15 3.977 6.235 3.978 6.856 0 .62.746 1.745 1.656 2.5.91.754 2.266 2.835 3.013 4.622.748 1.787 1.772 3.25 2.278 3.25s1.222 1.012 1.592 2.25c.369 1.237 2.575 5.175 4.902 8.75 2.326 3.575 4.983 7.728 5.904 9.229.921 1.501 2.953 3.391 4.516 4.199 2.7 1.396 3.103 1.297 8.078-1.979 2.88-1.897 5.55-3.449 5.934-3.449.384 0 2.032-1.106 3.663-2.458 7.273-6.028 9.312-7.542 10.159-7.542.499 0 3.698-2.25 7.111-5s6.583-5 7.045-5c.462 0 1.585-.823 2.495-1.829 1.515-1.674 1.655-9.776 1.655-96V0l-2.75.037c-2.101.027-3.412 1.03-5.556 4.25"/><path fill="#1976D2" fill-opacity=".056" fill-rule="evenodd" d="M166.5 23.85c-1.1.357-4.186 1.959-6.859 3.559l-4.858 2.908.766 10.592c.421 5.825.7 24.863.62 42.308l-.146 31.716 3.238 4.622c1.782 2.542 3.729 5.478 4.328 6.526.599 1.048 1.781 2.696 2.628 3.662 1.772 2.022 6.783 11.325 6.783 12.591 0 .468.9 1.995 2 3.393 1.1 1.399 2 3.321 2 4.273 0 .952.9 2.874 2 4.273 2.372 3.015 2.5 4.667.567 7.286-1.148 1.556-1.684 1.693-2.7.691-.942-.93-7.388-1.25-25.161-1.25-23.052 0-23.912.07-24.416 2-.645 2.465-1.864 2.56-3.21.25-2.125-3.648-1.162 1.696 1.091 6.052 3.318 6.418 3.814 7.29 10.145 17.835 1.201 2 4.13 6.95 6.509 11 8.248 14.044 9.08 15.32 10.814 16.589.959.7 2.693 1.274 3.853 1.274 1.858 0 9.237-4.426 17.504-10.5 1.498-1.1 4.024-2.886 5.613-3.969 1.59-1.082 5.225-3.782 8.078-6 2.853-2.217 6.778-5.156 8.722-6.531l3.536-2.5.027-75.905c.027-72.929-.042-75.841-1.765-74.282-.987.893-1.931 3.325-2.099 5.405-.399 4.945-.636 6.468-1.291 8.282C193.555 53.491 191 65.015 191 67.214c0 1.312-.381 2.814-.846 3.336-1.089 1.223-4.563 14.552-6.633 25.45-2.475 13.029-2.516 13.168-3.782 12.746-2.215-.738-2.692-7.185-3.346-45.246-.388-22.581-1.056-38.507-1.646-39.25-1.042-1.313-4.868-1.499-8.247-.4M97.08 38.254c-1.88 1.235-4.267 2.75-5.303 3.365-1.036.615-2.727 1.965-3.757 3-1.03 1.035-3.5 3.006-5.488 4.381-5.851 4.047-11.319 8.089-18.92 13.984C61.474 64.643 58.887 66 57.862 66 56.062 66 56 68.586 56 144c0 42.9.337 77.993.75 77.985.413-.009 1.425-.459 2.25-1 1.248-.82 1.271-1.133.137-1.864-.836-.539-.953-1.022-.303-1.25.583-.204 1.304-1.721 1.603-3.371.766-4.234 1.312-6.533 2.417-10.175.53-1.746.715-3.422.412-3.726-.303-.303.018-1.237.714-2.075.696-.838.988-1.524.651-1.524-.338 0 .037-1.687.833-3.75.796-2.062 1.862-6 2.368-8.75.97-5.274 5.426-25.542 7.475-34 .666-2.75 1.624-5 2.13-5 2.206 0 2.819 8.259 3.265 44 .384 30.681.752 38.433 1.91 40.25 1.619 2.54 4.57 2.941 6.301.855.637-.768 2.662-1.678 4.501-2.023 1.838-.345 4.452-1.655 5.809-2.912l2.466-2.286-.485-42.85-.485-42.85-2.878-4.265c-1.583-2.346-3.519-5.798-4.302-7.672-.783-1.873-2.124-3.988-2.981-4.699-.857-.711-1.558-1.807-1.558-2.435 0-.629-.9-2.822-2-4.874-1.1-2.053-2-4.353-2-5.113 0-.76-.675-1.941-1.5-2.626-.875-.726-1.5-2.909-1.5-5.239 0-3.707.162-3.938 2.25-3.211 2.365.822 45.05 2.283 47.908 1.639.911-.206 1.882-1.232 2.156-2.281.675-2.584 2.55-2.408 3.655.342.826 2.055.91 1.973.968-.941.034-1.755-.335-3.437-.821-3.737-.486-.301-1.851-2.465-3.032-4.809-1.182-2.345-3.237-6.063-4.568-8.263-1.331-2.2-2.978-5.125-3.661-6.5-.683-1.375-1.871-3.256-2.641-4.181-1.512-1.816-4.215-6.483-6.603-11.399-.822-1.693-2.196-3.661-3.053-4.372-.857-.711-1.558-1.878-1.558-2.594 0-.715-1.125-2.638-2.5-4.272-1.375-1.634-2.5-3.428-2.5-3.987 0-1.065-5.66-6.198-6.827-6.191-.37.002-2.212 1.014-4.093 2.25M78 94.5c0 .825.45 1.5 1 1.5s1-.675 1-1.5-.45-1.5-1-1.5-1 .675-1 1.5M182 166c0 .55.477 1 1.059 1s.781-.45.441-1-.816-1-1.059-1-.441.45-.441 1"/><path fill="#1976D2" fill-opacity=".192" fill-rule="evenodd" d="M164.222 26.954C161.909 28.629 159.59 30 159.068 30c-1.702 0-1.963 1.54-.941 5.555.552 2.17 1.235 5.97 1.519 8.445.283 2.475 1.803 11.925 3.377 21 1.575 9.075 3.333 19.875 3.906 24s1.386 9.94 1.806 12.922c.924 6.549 2.841 7.716 3.931 2.392.429-2.098.793-20.914.807-41.814l.027-38-2.537-.296c-1.593-.186-4.101.838-6.741 2.75M95.8 40.282c-1.485 1.22-5.659 4.468-9.276 7.218-3.616 2.75-10.893 8.487-16.17 12.75C64.402 65.057 59.855 68 58.379 68H56v40c0 22 .174 40 .386 40 1.323 0 5.467-2.814 4.932-3.348-.358-.359.059-.652.926-.652.868 0 2.714-1.35 4.103-3 1.388-1.65 3.003-3 3.588-3 .586 0 .965-.338.843-.75-.312-1.049 3.344-6.495 5.365-7.994.923-.684 2.994-3.384 4.603-6 3.19-5.189 3.12-6.604-.729-14.756-1.039-2.2-2.164-4.675-2.5-5.5-.337-.825-1.689-3.3-3.005-5.5-4.725-7.901-8.915-16.801-8.776-18.643.312-4.149 1.657-4.357 28.18-4.357 19.444 0 25.514-.294 25.834-1.25.229-.687 1.279-1.25 2.333-1.25 1.861 0 1.859-.058-.083-2-1.1-1.1-2-2.693-2-3.54 0-.848-.806-2.76-1.79-4.25-3.113-4.713-4.208-6.619-5.8-10.095-.852-1.862-2.523-4.787-3.712-6.5-5.764-8.304-8.105-9.272-12.898-5.333M63 70.227C63 71.764 64.937 74 66.27 74c.478 0 .725-1.008.55-2.24-.345-2.418-3.82-3.813-3.82-1.533m131.286 40.379c-1.218 1.317-2.078 2.394-1.911 2.394.167 0-2.449 2.813-5.813 6.25-10.592 10.822-12.769 14.128-12.002 18.219.366 1.952 1.515 4.628 2.553 5.947 1.038 1.32 1.887 2.915 1.887 3.545 0 .63 1.125 2.801 2.5 4.824 1.375 2.024 2.5 4.202 2.5 4.84 0 .639.633 1.404 1.406 1.7.773.297 1.702 1.889 2.064 3.538.362 1.649 1.271 3.507 2.02 4.129 1.874 1.555 4.749 11.069 4.343 14.368-.399 3.239-1.978 3.678-3.264.907-.894-1.926-1.886-2.006-24.793-2.012-13.123-.004-24.13-.276-24.459-.605-.329-.328-1.813.121-3.298.998-2.66 1.571-2.68 1.658-1.283 5.713.78 2.264 1.783 4.347 2.229 4.628.446.281 1.539 2.086 2.43 4.011.891 1.925 2.711 5.3 4.046 7.5 1.334 2.2 3.357 5.672 4.496 7.717 1.917 3.443 4.679 5.783 6.826 5.783 1.174 0 9.391-5.379 15.977-10.458 2.882-2.223 8.197-6.292 11.81-9.042 3.614-2.75 8.065-6.238 9.892-7.75 1.827-1.512 3.825-2.75 4.44-2.75.805 0 1.118-10.791 1.118-38.5 0-36.04-.112-38.493-1.75-38.394-.963.058-2.746 1.183-3.964 2.5M85.4 147.162c-1.098 1.776-2.246 30.039-2.331 57.397-.082 26.353.028 26.715 7.31 23.934 5.385-2.057 10.085-6.932 9.044-9.383-.376-.886-1.298-5.885-2.048-11.11s-1.997-12.875-2.77-17c-1.782-9.507-4.261-25.178-5.613-35.478-1.078-8.211-2.147-10.698-3.592-8.36"/></svg>