<svg width="22" height="40" viewBox="0 0 22 40" fill="none" xmlns="http://www.w3.org/2000/svg">
<path d="M22 0L22 29L16.5812 32.8705C15.9194 33.3433 15 32.8702 15 32.0568V23.9781L15 5L18 4L22 0Z" fill="url(#paint0_angular_70_602)"/>
<path d="M0 40V11L5.41876 7.12946C6.08063 6.65669 7 7.12982 7 7.94319V16.0219V35L4 36L0 40Z" fill="url(#paint1_angular_70_602)"/>
<path d="M0 11L7 6L14.5 17.5L22 29L15 34L7.5 22.5L0 11Z" fill="url(#paint2_linear_70_602)"/>
<defs>
<radialGradient id="paint0_angular_70_602" cx="0" cy="0" r="1" gradientUnits="userSpaceOnUse" gradientTransform="translate(18 20.5) rotate(-90) scale(16.5 6.16649)">
<stop stop-color="white"/>
<stop offset="0.0210892" stop-color="#F3F3FC" stop-opacity="0.965856"/>
<stop offset="0.328125" stop-color="#4444D1" stop-opacity="0.46875"/>
<stop offset="0.90625" stop-color="#487BC6" stop-opacity="0.35"/>
<stop offset="1" stop-color="#6969FF"/>
</radialGradient>
<radialGradient id="paint1_angular_70_602" cx="0" cy="0" r="1" gradientUnits="userSpaceOnUse" gradientTransform="translate(4 19.5) rotate(90) scale(16.5 6.16649)">
<stop stop-color="white"/>
<stop offset="0.0210892" stop-color="#F3F3FC" stop-opacity="0.965856"/>
<stop offset="0.328125" stop-color="#4444D1" stop-opacity="0.46875"/>
<stop offset="0.90625" stop-color="#487BC6" stop-opacity="0.35"/>
<stop offset="1" stop-color="#6969FF"/>
</radialGradient>
<linearGradient id="paint2_linear_70_602" x1="11.5" y1="6" x2="11.5" y2="34" gradientUnits="userSpaceOnUse">
<stop stop-color="#8181D2"/>
<stop offset="0.546875" stop-color="white"/>
<stop offset="1" stop-color="#7373CD"/>
</linearGradient>
</defs>
</svg>
